<svg id="Camada_1" data-name="Camada 1" xmlns="http://www.w3.org/2000/svg" viewBox="0 0 399.43 149.79"><defs><style>.cls-1{fill:#fff;}</style></defs><title>od4d-logo-2016-white</title><path class="cls-1" d="M180.21,100.31V99.19h3.14V95.57c0-2.46,1.74-3.48,3.86-3.48a7.75,7.75,0,0,1,1.54.17v1.13a7.84,7.84,0,0,0-1.54-.17c-1.43,0-2.56.51-2.56,2.46v3.52h3.65v1.13h-3.65v16.42h-1.3V100.31h-3.14Z" transform="translate(-2.78 -2.27)"/><path class="cls-1" d="M197.08,98.78c5.16,0,8.06,4.2,8.06,9.18s-2.9,9.19-8.06,9.19S189,112.95,189,108,191.92,98.78,197.08,98.78Zm0,17.24c4.4,0,6.76-3.86,6.76-8.06s-2.36-8.06-6.76-8.06-6.76,3.86-6.76,8.06S192.67,116,197.08,116Z" transform="translate(-2.78 -2.27)"/><path class="cls-1" d="M209,103.08h0.1c0.68-2.29,3.55-4.13,6.73-4v1.3a5.93,5.93,0,0,0-4.85,1.71c-1.3,1.33-1.84,2.42-2,5.05v9.59h-1.3V99.19H209v3.89Z" transform="translate(-2.78 -2.27)"/><path class="cls-1" d="M239.18,113h-0.07a7,7,0,0,1-6.73,4.17c-5.29,0-7.58-4.3-7.58-9.15,0-5.19,2.53-9.22,7.82-9.22a6.64,6.64,0,0,1,6.49,4.34h0.07V92.36h1.3v24.38h-1.3V113Zm0-5c0-4.1-2-8.09-6.52-8.09s-6.52,3.86-6.52,8.09,2,8,6.56,8S239.14,112,239.14,108Z" transform="translate(-2.78 -2.27)"/><path class="cls-1" d="M244.61,108.13c-0.07,4.13,2.12,7.89,6.45,7.89a6.07,6.07,0,0,0,6.28-5.22h1.3c-0.68,4.1-3.42,6.35-7.58,6.35-5.12,0-7.82-4-7.75-8.88s2.46-9.49,7.75-9.49c5.5,0,8,4.34,7.72,9.35H244.61ZM257.48,107c-0.07-3.69-2.39-7.1-6.42-7.1s-6.18,3.62-6.45,7.1h12.87Z" transform="translate(-2.78 -2.27)"/><path class="cls-1" d="M268,116.74h-1.61l-7.07-17.55h1.5l6.35,16h0.07l5.94-16h1.43Z" transform="translate(-2.78 -2.27)"/><path class="cls-1" d="M276.46,108.13c-0.07,4.13,2.12,7.89,6.45,7.89a6.07,6.07,0,0,0,6.28-5.22h1.3c-0.68,4.1-3.42,6.35-7.58,6.35-5.12,0-7.82-4-7.75-8.88s2.46-9.49,7.75-9.49c5.5,0,8,4.34,7.72,9.35H276.46ZM289.33,107c-0.07-3.69-2.39-7.1-6.42-7.1s-6.18,3.62-6.45,7.1h12.87Z" transform="translate(-2.78 -2.27)"/><path class="cls-1" d="M294.76,92.36v24.38h-1.3V92.36h1.3Z" transform="translate(-2.78 -2.27)"/><path class="cls-1" d="M305.62,98.78c5.16,0,8.06,4.2,8.06,9.18s-2.9,9.19-8.06,9.19-8.06-4.2-8.06-9.19S300.47,98.78,305.62,98.78Zm0,17.24c4.4,0,6.76-3.86,6.76-8.06s-2.36-8.06-6.76-8.06-6.76,3.86-6.76,8.06S301.22,116,305.62,116Z" transform="translate(-2.78 -2.27)"/><path class="cls-1" d="M317.81,103.22h0.07a6.56,6.56,0,0,1,6.38-4.44c5.4,0,7.89,4.27,7.89,9.22,0,5.33-2.53,9.15-7.89,9.15-2.9,0-5.36-1.23-6.38-4.06h-0.07V123h-1.3V99.19h1.3v4Zm13,4.78c0-4-1.88-8.09-6.59-8.09s-6.42,3.93-6.42,8.09,1.47,8,6.42,8C328.84,116,330.85,112.33,330.85,108Z" transform="translate(-2.78 -2.27)"/><path class="cls-1" d="M334.71,99.19H336v3.59h0.07a5.66,5.66,0,0,1,5.5-4c3.35,0,4.92,1.91,5.29,3.72h0.07a5.55,5.55,0,0,1,5.57-3.72c3.18,0,5.5,1.84,5.5,6v12h-1.3v-12c0-4.47-3.18-4.81-4.2-4.81-3.18,0-5.5,2.25-5.5,6.45v10.38h-1.3v-12c0-4.41-3-4.81-4.13-4.81-2.49,0-5.57,1.95-5.57,6.45v10.38h-1.3V99.19Z" transform="translate(-2.78 -2.27)"/><path class="cls-1" d="M361.86,108.13c-0.07,4.13,2.12,7.89,6.45,7.89a6.07,6.07,0,0,0,6.28-5.22h1.3c-0.68,4.1-3.42,6.35-7.58,6.35-5.12,0-7.82-4-7.75-8.88s2.46-9.49,7.75-9.49c5.5,0,8,4.34,7.72,9.35H361.86ZM374.73,107c-0.07-3.69-2.39-7.1-6.42-7.1s-6.18,3.62-6.45,7.1h12.87Z" transform="translate(-2.78 -2.27)"/><path class="cls-1" d="M378.55,99.19h1.3v3.76h0.07a6.5,6.5,0,0,1,6.28-4.17c6.18,0,6.25,5,6.25,7.1v10.86h-1.3v-11.1c0-1.81-.21-5.74-5-5.74-3.93,0-6.32,3-6.32,7.34v9.49h-1.3V99.19Z" transform="translate(-2.78 -2.27)"/><path class="cls-1" d="M402.22,100.31h-3.82v12.26c0,2.83,1.33,3.11,3.79,3v1.13c-2.66.17-5.22-.21-5.09-4.17V100.31h-3.24V99.19h3.24V93.73h1.3v5.46h3.82v1.13Z" transform="translate(-2.78 -2.27)"/><path class="cls-1" d="M134.66,75.47a5.36,5.36,0,0,0-5,2.75q-1.57,2.75-1.57,7.94a15.81,15.81,0,0,0,1.85,8.09,6.36,6.36,0,0,0,5.93,3.14q1.18,0,2.2-.08t2.12-.23V77a12.37,12.37,0,0,0-2.52-1.06A10.2,10.2,0,0,0,134.66,75.47Z" transform="translate(-2.78 -2.27)"/><path class="cls-1" d="M96.47,75.39a6.32,6.32,0,0,0-5.7,3,14.67,14.67,0,0,0-1.92,8,15.93,15.93,0,0,0,1.77,8,6.08,6.08,0,0,0,5.7,3.06,6.3,6.3,0,0,0,5.7-3.06,14.88,14.88,0,0,0,1.93-8,15.71,15.71,0,0,0-1.77-8A6.1,6.1,0,0,0,96.47,75.39Z" transform="translate(-2.78 -2.27)"/><path class="cls-1" d="M179.6,64.73q0-9.49,3.5-14.33a11.34,11.34,0,0,1,9.73-4.84q6.47,0,9.85,4.84t3.38,14.33q0,9.5-3.44,14.33a12.36,12.36,0,0,1-19.62,0Q179.6,74.23,179.6,64.73Zm7.42,0q0,2.67.21,5a16.18,16.18,0,0,0,.83,4.07,6.59,6.59,0,0,0,1.75,2.73,5,5,0,0,0,6,0,6.42,6.42,0,0,0,1.78-2.76,16.59,16.59,0,0,0,.83-4.07q0.21-2.31.21-5t-0.21-5a16.22,16.22,0,0,0-.83-4.07,6.59,6.59,0,0,0-1.75-2.73,5,5,0,0,0-6.05,0,6.58,6.58,0,0,0-1.75,2.76,16.57,16.57,0,0,0-.83,4.07Q187,62.06,187,64.73Z" transform="translate(-2.78 -2.27)"/><path class="cls-1" d="M234.52,69.18a23.13,23.13,0,0,1-.71,5.91,14.18,14.18,0,0,1-2.08,4.63,9.46,9.46,0,0,1-3.44,3,10.38,10.38,0,0,1-4.81,1.07,13.74,13.74,0,0,1-5.76-1.37V92.93h-7.3V56.13a30,30,0,0,1,5-1.07,41.46,41.46,0,0,1,5.79-.41q6.47,0,9.91,3.92T234.52,69.18Zm-7.42.24a11.54,11.54,0,0,0-1.48-6.14,4.94,4.94,0,0,0-4.51-2.4q-0.83,0-1.78.09l-1.6.15V76.43a6.06,6.06,0,0,0,1.9.77,9.7,9.7,0,0,0,2.37.3,4.17,4.17,0,0,0,3.86-2.11A11.8,11.8,0,0,0,227.1,69.42Z" transform="translate(-2.78 -2.27)"/><path class="cls-1" d="M238,69.42A17.18,17.18,0,0,1,239.15,63a14,14,0,0,1,3-4.66,12.23,12.23,0,0,1,4.21-2.82,13,13,0,0,1,4.87-.95q6.17,0,9.38,3.65t3.21,10.65c0,0.48,0,1,0,1.48s0,0.93-.09,1.25h-18.1a5,5,0,0,0,2.26,4.3,10,10,0,0,0,5.82,1.57,17.91,17.91,0,0,0,4.18-.48q2-.47,3.35-0.95l1,6.23a33.19,33.19,0,0,1-4,1.1,23.69,23.69,0,0,1-4.81.45,20.52,20.52,0,0,1-6.38-.92,13,13,0,0,1-4.81-2.73,12,12,0,0,1-3.06-4.48A16.7,16.7,0,0,1,238,69.42Zm18.7-2.91a7.85,7.85,0,0,0-.3-2.17,5.4,5.4,0,0,0-.95-1.87,4.83,4.83,0,0,0-1.66-1.34,5.55,5.55,0,0,0-2.49-.5,5.88,5.88,0,0,0-2.46.48,4.73,4.73,0,0,0-1.72,1.31,6.37,6.37,0,0,0-1.07,1.9,9.29,9.29,0,0,0-.5,2.2h11.16Z" transform="translate(-2.78 -2.27)"/><path class="cls-1" d="M268.11,56.13a49.32,49.32,0,0,1,4.84-1,38.52,38.52,0,0,1,6.26-.47,14.38,14.38,0,0,1,5.52.92,8.23,8.23,0,0,1,3.47,2.61,10.48,10.48,0,0,1,1.81,4,23.46,23.46,0,0,1,.53,5.19V83.13h-7.3V68.35a13.08,13.08,0,0,0-.89-5.64Q281.46,61,278.73,61q-0.83,0-1.63.06t-1.69.18v21.9h-7.3v-27Z" transform="translate(-2.78 -2.27)"/><path class="cls-1" d="M321.29,64.73A26.11,26.11,0,0,1,320,73.43a15.44,15.44,0,0,1-3.53,5.85,13.53,13.53,0,0,1-5.37,3.29,21.58,21.58,0,0,1-6.86,1,35,35,0,0,1-3.83-.21,38,38,0,0,1-4-.68V46.87a36.62,36.62,0,0,1,4.69-.71Q303.3,46,305.2,46A19.6,19.6,0,0,1,311.82,47a12.36,12.36,0,0,1,5.07,3.35,15.84,15.84,0,0,1,3.23,5.82A27.53,27.53,0,0,1,321.29,64.73ZM303.72,77.2a3.27,3.27,0,0,0,.65.06H305a8.44,8.44,0,0,0,4.18-1,7.49,7.49,0,0,0,2.73-2.61,11.55,11.55,0,0,0,1.48-3.95,26.18,26.18,0,0,0,.45-5,29.59,29.59,0,0,0-.36-4.63,13,13,0,0,0-1.25-4,7.32,7.32,0,0,0-2.43-2.76,7,7,0,0,0-4-1l-1.07,0a5.62,5.62,0,0,0-1.07.15V77.2Z" transform="translate(-2.78 -2.27)"/><path class="cls-1" d="M335.38,54.53a17.51,17.51,0,0,1,5.73.8,9,9,0,0,1,3.65,2.25,8.46,8.46,0,0,1,2,3.56,17.4,17.4,0,0,1,.59,4.72V82.48q-1.6.36-4.75,0.83a47.57,47.57,0,0,1-7.06.48,22.62,22.62,0,0,1-4.84-.48A10,10,0,0,1,327,81.74a7.23,7.23,0,0,1-2.37-2.85,10,10,0,0,1-.83-4.3,8.15,8.15,0,0,1,.95-4.1,7.52,7.52,0,0,1,2.55-2.67,11.29,11.29,0,0,1,3.68-1.45,20.6,20.6,0,0,1,4.33-.45,24,24,0,0,1,5,.48V65.51A4.89,4.89,0,0,0,339,62q-1.31-1.39-4.51-1.39a26.32,26.32,0,0,0-4,.3,18,18,0,0,0-3.12.71l-1-5.88a23.29,23.29,0,0,1,3.86-.86A33.77,33.77,0,0,1,335.38,54.53ZM336,77.91q1.19,0,2.31,0a17,17,0,0,0,2-.15V71.32q-0.71-.12-1.72-0.21T336.75,71a16,16,0,0,0-2.2.15,7,7,0,0,0-1.87.5,3.1,3.1,0,0,0-1.28,1,3.3,3.3,0,0,0,.95,4.42A7.46,7.46,0,0,0,336,77.91Z" transform="translate(-2.78 -2.27)"/><path class="cls-1" d="M356.43,61.29h-6.35V55.24h6.35v-7l7.3-1.19v8.19h11.69v6.05H363.73V72.57a8.55,8.55,0,0,0,.3,2.49,3.57,3.57,0,0,0,.83,1.48,2.65,2.65,0,0,0,1.31.71,7.69,7.69,0,0,0,1.72.18q1,0,1.87-.06a14.42,14.42,0,0,0,1.66-.21,11.33,11.33,0,0,0,1.66-.44,18.67,18.67,0,0,0,1.87-.77l1,6.29a18.85,18.85,0,0,1-4.36,1.19,30.28,30.28,0,0,1-4.54.36,22,22,0,0,1-4.51-.42,7.25,7.25,0,0,1-3.32-1.6,7.36,7.36,0,0,1-2.08-3.35,18.53,18.53,0,0,1-.71-5.67V61.29Z" transform="translate(-2.78 -2.27)"/><path class="cls-1" d="M390.29,54.53a17.51,17.51,0,0,1,5.73.8,9,9,0,0,1,3.65,2.25,8.46,8.46,0,0,1,2,3.56,17.4,17.4,0,0,1,.59,4.72V82.48q-1.6.36-4.75,0.83a47.56,47.56,0,0,1-7.06.48,22.62,22.62,0,0,1-4.84-.48,10,10,0,0,1-3.71-1.57,7.23,7.23,0,0,1-2.37-2.85,10,10,0,0,1-.83-4.3,8.15,8.15,0,0,1,.95-4.1,7.52,7.52,0,0,1,2.55-2.67,11.29,11.29,0,0,1,3.68-1.45,20.6,20.6,0,0,1,4.33-.45,24,24,0,0,1,5,.48V65.51A4.89,4.89,0,0,0,393.91,62q-1.31-1.39-4.51-1.39a26.32,26.32,0,0,0-4,.3,18,18,0,0,0-3.12.71l-1-5.88a23.29,23.29,0,0,1,3.86-.86A33.77,33.77,0,0,1,390.29,54.53Zm0.65,23.38q1.19,0,2.31,0a17,17,0,0,0,2-.15V71.32q-0.71-.12-1.72-0.21T391.65,71a16,16,0,0,0-2.2.15,7,7,0,0,0-1.87.5,3.1,3.1,0,0,0-1.28,1,3.3,3.3,0,0,0,.95,4.42A7.46,7.46,0,0,0,390.94,77.91Z" transform="translate(-2.78 -2.27)"/><path class="cls-1" d="M66.92,82.69A19.41,19.41,0,1,1,47.51,63.28,19.41,19.41,0,0,1,66.92,82.69" transform="translate(-2.78 -2.27)"/><path class="cls-1" d="M87.83,131.84a20.22,20.22,0,1,1-20.22-20.22,20.22,20.22,0,0,1,20.22,20.22" transform="translate(-2.78 -2.27)"/><path class="cls-1" d="M103,33.1a15.42,15.42,0,1,1,15.42-15.42A15.42,15.42,0,0,1,103,33.1" transform="translate(-2.78 -2.27)"/><path class="cls-1" d="M107.55,147.25a7.66,7.66,0,1,1,7.66-7.66,7.66,7.66,0,0,1-7.66,7.66" transform="translate(-2.78 -2.27)"/><path class="cls-1" d="M17.21,38.93A14.43,14.43,0,1,1,2.78,53.36,14.43,14.43,0,0,1,17.21,38.93" transform="translate(-2.78 -2.27)"/><path class="cls-1" d="M56.2,32.93A12.68,12.68,0,1,1,43.52,45.61,12.68,12.68,0,0,1,56.2,32.93" transform="translate(-2.78 -2.27)"/><path class="cls-1" d="M30.57,98.82A10.21,10.21,0,1,1,20.36,109,10.21,10.21,0,0,1,30.57,98.82" transform="translate(-2.78 -2.27)"/><path class="cls-1" d="M134.27,24.07a6.86,6.86,0,1,1,3.29,9.12,6.85,6.85,0,0,1-3.29-9.12" transform="translate(-2.78 -2.27)"/><path class="cls-1" d="M65.46,12.42A7.55,7.55,0,1,1,57.91,20a7.55,7.55,0,0,1,7.55-7.55" transform="translate(-2.78 -2.27)"/><path class="cls-1" d="M118.52,34.77a47.33,47.33,0,1,0,47.33,47.33A47.33,47.33,0,0,0,118.52,34.77Zm-5.93,59.52a18.56,18.56,0,0,1-3.54,6.17,15.64,15.64,0,0,1-5.46,4,18.58,18.58,0,0,1-14.22,0,16,16,0,0,1-5.5-4,18.16,18.16,0,0,1-3.58-6.17,23.9,23.9,0,0,1-1.26-8,23,23,0,0,1,1.3-7.9,18.28,18.28,0,0,1,3.61-6.13,15.73,15.73,0,0,1,5.54-3.93,18.58,18.58,0,0,1,14,0,15.84,15.84,0,0,1,5.5,3.93,17.8,17.8,0,0,1,3.58,6.13A25.68,25.68,0,0,1,112.58,94.29Zm37.24,9.47a39.64,39.64,0,0,1-6.52,1.41,53.44,53.44,0,0,1-7.54.55q-8.64,0-13.08-5.11t-4.44-14q0-9,3.73-14.26t11-5.23a17.2,17.2,0,0,1,3.85.43,12.57,12.57,0,0,1,3.3,1.22V52l9.66-1.65v53.43Z" transform="translate(-2.78 -2.27)"/></svg>