<?xml version="1.0" encoding="utf-8"?>
<!-- Generator: Adobe Illustrator 19.2.1, SVG Export Plug-In . SVG Version: 6.00 Build 0)  -->
<svg version="1.1"
	 id="svg2" xmlns:cc="http://creativecommons.org/ns#" xmlns:dc="http://purl.org/dc/elements/1.1/" xmlns:rdf="http://www.w3.org/1999/02/22-rdf-syntax-ns#"
	 xmlns="http://www.w3.org/2000/svg" xmlns:xlink="http://www.w3.org/1999/xlink" x="0px" y="0px" viewBox="0 0 182.3 148.1"
	 style="enable-background:new 0 0 182.3 148.1;" xml:space="preserve">
<style type="text/css">
	.st0{fill:#FFFFFF;}
</style>
<g id="g10" transform="matrix(1.3333 0 0 -1.3333 0 150.67)">
	<g id="g12" transform="scale(.1)">
		<g id="g14">
			<g>
				<g id="g16">
					<path id="path22" class="st0" d="M1353.8,991.8c-49.4-21.9-102.6-36.8-158.3-43.4c56.9,34.1,100.6,88.2,121.2,152.5
						c-53.3-31.6-112.3-54.5-175.1-66.9c-50.3,53.6-121.9,87.1-201.2,87.1c-152.3,0-275.7-123.4-275.7-275.7
						c0-21.6,2.4-42.7,7.1-62.8C442.7,794,239.6,903.8,103.6,1070.6c-23.7-40.7-37.3-88.1-37.3-138.6c0-95.7,48.7-180,122.7-229.5
						c-45.2,1.4-87.7,13.8-124.9,34.5c0-1.2,0-2.3,0-3.5c0-133.6,95-245,221.2-270.4c-23.1-6.3-47.5-9.6-72.6-9.6
						c-17.8,0-35,1.7-51.9,4.9C195.8,348.9,297.6,269.2,418.2,267c-94.4-74-213.3-118-342.5-118c-22.2,0-44.2,1.3-65.8,3.8
						C132,74.6,276.9,28.9,432.6,28.9C939.7,28.9,1217,449,1217,813.4c0,11.9-0.3,23.8-0.8,35.6
						C1270.1,887.9,1316.8,936.5,1353.8,991.8"/>
				</g>
			</g>
		</g>
	</g>
</g>
</svg>
